<mxfile host="65bd71144e">
    <diagram id="F1-E8T4RD7VsMiOD42gL" name="Page-1">
        <mxGraphModel dx="253" dy="154" grid="1" gridSize="10" guides="1" tooltips="1" connect="1" arrows="1" fold="1" page="1" pageScale="1.4" pageWidth="1100" pageHeight="850" math="0" shadow="0">
            <root>
                <mxCell id="0"/>
                <mxCell id="1" parent="0"/>
                <mxCell id="2" value="ART_OBJECT" style="whiteSpace=wrap;html=1;align=center;" vertex="1" parent="1">
                    <mxGeometry x="410" y="260" width="100" height="40" as="geometry"/>
                </mxCell>
                <mxCell id="3" value="ID_no" style="ellipse;whiteSpace=wrap;html=1;align=center;fontStyle=4;" vertex="1" parent="1">
                    <mxGeometry x="380" y="130" width="70" height="30" as="geometry"/>
                </mxCell>
                <mxCell id="4" value="Title" style="ellipse;whiteSpace=wrap;html=1;align=center;" vertex="1" parent="1">
                    <mxGeometry x="470" y="130" width="70" height="30" as="geometry"/>
                </mxCell>
                <mxCell id="5" value="Description" style="ellipse;whiteSpace=wrap;html=1;align=center;" vertex="1" parent="1">
                    <mxGeometry x="540" y="160" width="70" height="30" as="geometry"/>
                </mxCell>
                <mxCell id="6" value="Year" style="ellipse;whiteSpace=wrap;html=1;align=center;" vertex="1" parent="1">
                    <mxGeometry x="570" y="210" width="70" height="30" as="geometry"/>
                </mxCell>
                <mxCell id="7" value="Epoch" style="ellipse;whiteSpace=wrap;html=1;align=center;" vertex="1" parent="1">
                    <mxGeometry x="290" y="160" width="70" height="30" as="geometry"/>
                </mxCell>
                <mxCell id="8" value="Country_of_origin" style="ellipse;whiteSpace=wrap;html=1;align=center;" vertex="1" parent="1">
                    <mxGeometry x="230" y="200" width="110" height="30" as="geometry"/>
                </mxCell>
                <mxCell id="9" value="" style="endArrow=none;html=1;rounded=0;exitX=0.5;exitY=1;exitDx=0;exitDy=0;entryX=0.5;entryY=0;entryDx=0;entryDy=0;" edge="1" parent="1" source="4" target="2">
                    <mxGeometry relative="1" as="geometry">
                        <mxPoint x="390" y="250" as="sourcePoint"/>
                        <mxPoint x="550" y="250" as="targetPoint"/>
                    </mxGeometry>
                </mxCell>
                <mxCell id="10" value="" style="endArrow=none;html=1;rounded=0;exitX=0;exitY=1;exitDx=0;exitDy=0;entryX=0.75;entryY=0;entryDx=0;entryDy=0;" edge="1" parent="1" source="5" target="2">
                    <mxGeometry relative="1" as="geometry">
                        <mxPoint x="465" y="160" as="sourcePoint"/>
                        <mxPoint x="470" y="270" as="targetPoint"/>
                    </mxGeometry>
                </mxCell>
                <mxCell id="11" value="" style="endArrow=none;html=1;rounded=0;exitX=0;exitY=1;exitDx=0;exitDy=0;entryX=1;entryY=0.25;entryDx=0;entryDy=0;" edge="1" parent="1" source="6" target="2">
                    <mxGeometry relative="1" as="geometry">
                        <mxPoint x="510.1962044931681" y="195.5829527495817" as="sourcePoint"/>
                        <mxPoint x="495" y="270" as="targetPoint"/>
                    </mxGeometry>
                </mxCell>
                <mxCell id="12" value="" style="endArrow=none;html=1;rounded=0;exitX=0.5;exitY=1;exitDx=0;exitDy=0;entryX=0.25;entryY=0;entryDx=0;entryDy=0;" edge="1" parent="1" source="3" target="2">
                    <mxGeometry relative="1" as="geometry">
                        <mxPoint x="520.1962044931681" y="205.5829527495817" as="sourcePoint"/>
                        <mxPoint x="505" y="280" as="targetPoint"/>
                    </mxGeometry>
                </mxCell>
                <mxCell id="13" value="" style="endArrow=none;html=1;rounded=0;exitX=1;exitY=1;exitDx=0;exitDy=0;entryX=0;entryY=0;entryDx=0;entryDy=0;" edge="1" parent="1" source="7" target="2">
                    <mxGeometry relative="1" as="geometry">
                        <mxPoint x="530.1962044931681" y="215.5829527495817" as="sourcePoint"/>
                        <mxPoint x="515" y="290" as="targetPoint"/>
                    </mxGeometry>
                </mxCell>
                <mxCell id="14" value="" style="endArrow=none;html=1;rounded=0;exitX=1;exitY=1;exitDx=0;exitDy=0;entryX=0;entryY=0.25;entryDx=0;entryDy=0;" edge="1" parent="1" source="8" target="2">
                    <mxGeometry relative="1" as="geometry">
                        <mxPoint x="379.9999999999993" y="225" as="sourcePoint"/>
                        <mxPoint x="420" y="270" as="targetPoint"/>
                    </mxGeometry>
                </mxCell>
                <mxCell id="15" value="MADE" style="shape=rhombus;perimeter=rhombusPerimeter;whiteSpace=wrap;html=1;align=center;" vertex="1" parent="1">
                    <mxGeometry x="150" y="250" width="80" height="80" as="geometry"/>
                </mxCell>
                <mxCell id="17" value="" style="endArrow=none;html=1;rounded=0;entryX=0;entryY=0.75;entryDx=0;entryDy=0;exitX=1;exitY=0.5;exitDx=0;exitDy=0;" edge="1" parent="1" source="15" target="2">
                    <mxGeometry relative="1" as="geometry">
                        <mxPoint x="240" y="330" as="sourcePoint"/>
                        <mxPoint x="400" y="330" as="targetPoint"/>
                    </mxGeometry>
                </mxCell>
                <mxCell id="18" value="N" style="resizable=0;html=1;align=right;verticalAlign=bottom;" connectable="0" vertex="1" parent="17">
                    <mxGeometry x="1" relative="1" as="geometry">
                        <mxPoint x="-100" as="offset"/>
                    </mxGeometry>
                </mxCell>
                <mxCell id="20" value="ARTIST" style="whiteSpace=wrap;html=1;align=center;" vertex="1" parent="1">
                    <mxGeometry x="140" y="440" width="100" height="40" as="geometry"/>
                </mxCell>
                <mxCell id="21" value="" style="endArrow=none;html=1;rounded=0;exitX=0.5;exitY=1;exitDx=0;exitDy=0;entryX=0.5;entryY=0;entryDx=0;entryDy=0;" edge="1" parent="1" source="15" target="20">
                    <mxGeometry relative="1" as="geometry">
                        <mxPoint x="170" y="380" as="sourcePoint"/>
                        <mxPoint x="330" y="380" as="targetPoint"/>
                    </mxGeometry>
                </mxCell>
                <mxCell id="22" value="1" style="resizable=0;html=1;align=right;verticalAlign=bottom;" connectable="0" vertex="1" parent="21">
                    <mxGeometry x="1" relative="1" as="geometry">
                        <mxPoint x="-10" y="-50" as="offset"/>
                    </mxGeometry>
                </mxCell>
                <mxCell id="23" value="Name" style="ellipse;whiteSpace=wrap;html=1;align=center;fontStyle=4;" vertex="1" parent="1">
                    <mxGeometry x="20" y="395" width="70" height="30" as="geometry"/>
                </mxCell>
                <mxCell id="24" value="Date_born" style="ellipse;whiteSpace=wrap;html=1;align=center;" vertex="1" parent="1">
                    <mxGeometry x="20" y="445" width="70" height="30" as="geometry"/>
                </mxCell>
                <mxCell id="25" value="Date_died" style="ellipse;whiteSpace=wrap;html=1;align=center;" vertex="1" parent="1">
                    <mxGeometry x="20" y="500" width="70" height="30" as="geometry"/>
                </mxCell>
                <mxCell id="26" value="Country_of_origin" style="ellipse;whiteSpace=wrap;html=1;align=center;" vertex="1" parent="1">
                    <mxGeometry x="40" y="550" width="110" height="30" as="geometry"/>
                </mxCell>
                <mxCell id="27" value="Epoch" style="ellipse;whiteSpace=wrap;html=1;align=center;" vertex="1" parent="1">
                    <mxGeometry x="200" y="540" width="70" height="30" as="geometry"/>
                </mxCell>
                <mxCell id="28" value="Main_style" style="ellipse;whiteSpace=wrap;html=1;align=center;" vertex="1" parent="1">
                    <mxGeometry x="280" y="490" width="70" height="30" as="geometry"/>
                </mxCell>
                <mxCell id="29" value="Description" style="ellipse;whiteSpace=wrap;html=1;align=center;" vertex="1" parent="1">
                    <mxGeometry x="280" y="425" width="70" height="30" as="geometry"/>
                </mxCell>
                <mxCell id="30" value="" style="endArrow=none;html=1;rounded=0;exitX=1;exitY=0.5;exitDx=0;exitDy=0;entryX=0;entryY=0;entryDx=0;entryDy=0;" edge="1" parent="1" source="23" target="20">
                    <mxGeometry relative="1" as="geometry">
                        <mxPoint x="210" y="470" as="sourcePoint"/>
                        <mxPoint x="370" y="470" as="targetPoint"/>
                    </mxGeometry>
                </mxCell>
                <mxCell id="31" value="" style="endArrow=none;html=1;rounded=0;exitX=1;exitY=0.5;exitDx=0;exitDy=0;entryX=0;entryY=0.5;entryDx=0;entryDy=0;" edge="1" parent="1" source="24" target="20">
                    <mxGeometry relative="1" as="geometry">
                        <mxPoint x="100" y="420" as="sourcePoint"/>
                        <mxPoint x="150" y="450" as="targetPoint"/>
                    </mxGeometry>
                </mxCell>
                <mxCell id="32" value="" style="endArrow=none;html=1;rounded=0;entryX=0;entryY=1;entryDx=0;entryDy=0;exitX=1;exitY=0.5;exitDx=0;exitDy=0;" edge="1" parent="1" source="25" target="20">
                    <mxGeometry relative="1" as="geometry">
                        <mxPoint x="100" y="490" as="sourcePoint"/>
                        <mxPoint x="150" y="470" as="targetPoint"/>
                    </mxGeometry>
                </mxCell>
                <mxCell id="33" value="" style="endArrow=none;html=1;rounded=0;entryX=0.25;entryY=1;entryDx=0;entryDy=0;exitX=1;exitY=0;exitDx=0;exitDy=0;" edge="1" parent="1" source="26" target="20">
                    <mxGeometry relative="1" as="geometry">
                        <mxPoint x="100" y="525" as="sourcePoint"/>
                        <mxPoint x="150" y="490" as="targetPoint"/>
                    </mxGeometry>
                </mxCell>
                <mxCell id="34" value="" style="endArrow=none;html=1;rounded=0;entryX=0.75;entryY=1;entryDx=0;entryDy=0;exitX=0.5;exitY=0;exitDx=0;exitDy=0;" edge="1" parent="1" source="27" target="20">
                    <mxGeometry relative="1" as="geometry">
                        <mxPoint x="144.04368405036632" y="564.4352384334303" as="sourcePoint"/>
                        <mxPoint x="175" y="490" as="targetPoint"/>
                    </mxGeometry>
                </mxCell>
                <mxCell id="35" value="" style="endArrow=none;html=1;rounded=0;entryX=1;entryY=1;entryDx=0;entryDy=0;exitX=0;exitY=0.5;exitDx=0;exitDy=0;" edge="1" parent="1" source="28" target="20">
                    <mxGeometry relative="1" as="geometry">
                        <mxPoint x="245" y="550" as="sourcePoint"/>
                        <mxPoint x="225" y="490" as="targetPoint"/>
                    </mxGeometry>
                </mxCell>
                <mxCell id="36" value="" style="endArrow=none;html=1;rounded=0;entryX=1;entryY=0.25;entryDx=0;entryDy=0;exitX=0;exitY=0.5;exitDx=0;exitDy=0;" edge="1" parent="1" source="29" target="20">
                    <mxGeometry relative="1" as="geometry">
                        <mxPoint x="290" y="515" as="sourcePoint"/>
                        <mxPoint x="250" y="490" as="targetPoint"/>
                    </mxGeometry>
                </mxCell>
                <mxCell id="37" value="HAS" style="shape=rhombus;perimeter=rhombusPerimeter;whiteSpace=wrap;html=1;align=center;" vertex="1" parent="1">
                    <mxGeometry x="420" y="400" width="80" height="80" as="geometry"/>
                </mxCell>
                <mxCell id="38" value="" style="endArrow=none;html=1;rounded=0;entryX=0.5;entryY=1;entryDx=0;entryDy=0;exitX=0.5;exitY=0;exitDx=0;exitDy=0;" edge="1" parent="1" source="37" target="2">
                    <mxGeometry relative="1" as="geometry">
                        <mxPoint x="450" y="410" as="sourcePoint"/>
                        <mxPoint x="610" y="410" as="targetPoint"/>
                    </mxGeometry>
                </mxCell>
                <mxCell id="39" value="N" style="resizable=0;html=1;align=right;verticalAlign=bottom;" connectable="0" vertex="1" parent="38">
                    <mxGeometry x="1" relative="1" as="geometry">
                        <mxPoint x="-10" y="70" as="offset"/>
                    </mxGeometry>
                </mxCell>
                <mxCell id="42" value="" style="shape=link;html=1;rounded=0;exitX=0.5;exitY=1;exitDx=0;exitDy=0;" edge="1" parent="1" source="37">
                    <mxGeometry relative="1" as="geometry">
                        <mxPoint x="460" y="560" as="sourcePoint"/>
                        <mxPoint x="460" y="580" as="targetPoint"/>
                    </mxGeometry>
                </mxCell>
                <mxCell id="43" value="1" style="resizable=0;html=1;align=right;verticalAlign=bottom;" connectable="0" vertex="1" parent="42">
                    <mxGeometry x="1" relative="1" as="geometry">
                        <mxPoint x="-10" y="-40" as="offset"/>
                    </mxGeometry>
                </mxCell>
                <mxCell id="45" value="EXHIBITION" style="whiteSpace=wrap;html=1;align=center;" vertex="1" parent="1">
                    <mxGeometry x="410" y="580" width="100" height="40" as="geometry"/>
                </mxCell>
                <mxCell id="46" value="Name" style="ellipse;whiteSpace=wrap;html=1;align=center;fontStyle=4;" vertex="1" parent="1">
                    <mxGeometry x="320" y="650" width="70" height="30" as="geometry"/>
                </mxCell>
                <mxCell id="47" value="Start_date" style="ellipse;whiteSpace=wrap;html=1;align=center;" vertex="1" parent="1">
                    <mxGeometry x="425" y="680" width="70" height="30" as="geometry"/>
                </mxCell>
                <mxCell id="48" value="End_date" style="ellipse;whiteSpace=wrap;html=1;align=center;" vertex="1" parent="1">
                    <mxGeometry x="530" y="650" width="70" height="30" as="geometry"/>
                </mxCell>
                <mxCell id="50" value="" style="endArrow=none;html=1;rounded=0;exitX=0.5;exitY=1;exitDx=0;exitDy=0;entryX=0.5;entryY=0;entryDx=0;entryDy=0;" edge="1" parent="1" source="45" target="47">
                    <mxGeometry relative="1" as="geometry">
                        <mxPoint x="500" y="640" as="sourcePoint"/>
                        <mxPoint x="660" y="640" as="targetPoint"/>
                    </mxGeometry>
                </mxCell>
                <mxCell id="51" value="" style="endArrow=none;html=1;rounded=0;exitX=0.75;exitY=1;exitDx=0;exitDy=0;entryX=0;entryY=0;entryDx=0;entryDy=0;" edge="1" parent="1" source="45" target="48">
                    <mxGeometry relative="1" as="geometry">
                        <mxPoint x="470" y="630" as="sourcePoint"/>
                        <mxPoint x="470" y="690" as="targetPoint"/>
                    </mxGeometry>
                </mxCell>
                <mxCell id="52" value="" style="endArrow=none;html=1;rounded=0;exitX=0.25;exitY=1;exitDx=0;exitDy=0;entryX=1;entryY=0;entryDx=0;entryDy=0;" edge="1" parent="1" source="45" target="46">
                    <mxGeometry relative="1" as="geometry">
                        <mxPoint x="495" y="630" as="sourcePoint"/>
                        <mxPoint x="550.1747601560924" y="664.4262867331504" as="targetPoint"/>
                    </mxGeometry>
                </mxCell>
                <mxCell id="53" value="d" style="ellipse;whiteSpace=wrap;html=1;align=center;" vertex="1" parent="1">
                    <mxGeometry x="670" y="270" width="20" height="20" as="geometry"/>
                </mxCell>
                <mxCell id="56" value="" style="shape=link;html=1;rounded=0;exitX=1;exitY=0.5;exitDx=0;exitDy=0;entryX=0;entryY=0.5;entryDx=0;entryDy=0;" edge="1" parent="1" source="2" target="53">
                    <mxGeometry relative="1" as="geometry">
                        <mxPoint x="670" y="240" as="sourcePoint"/>
                        <mxPoint x="830" y="240" as="targetPoint"/>
                    </mxGeometry>
                </mxCell>
                <mxCell id="58" value="PERMANENT_COLLECTION" style="whiteSpace=wrap;html=1;align=center;" vertex="1" parent="1">
                    <mxGeometry x="760" y="160" width="170" height="40" as="geometry"/>
                </mxCell>
                <mxCell id="59" value="Date_acquired" style="ellipse;whiteSpace=wrap;html=1;align=center;" vertex="1" parent="1">
                    <mxGeometry x="670" y="70" width="100" height="30" as="geometry"/>
                </mxCell>
                <mxCell id="60" value="Status" style="ellipse;whiteSpace=wrap;html=1;align=center;" vertex="1" parent="1">
                    <mxGeometry x="810" y="70" width="70" height="30" as="geometry"/>
                </mxCell>
                <mxCell id="61" value="Cost" style="ellipse;whiteSpace=wrap;html=1;align=center;" vertex="1" parent="1">
                    <mxGeometry x="920" y="70" width="70" height="30" as="geometry"/>
                </mxCell>
                <mxCell id="62" value="" style="endArrow=none;html=1;rounded=0;exitX=1;exitY=1;exitDx=0;exitDy=0;entryX=0.25;entryY=0;entryDx=0;entryDy=0;" edge="1" parent="1" source="59" target="58">
                    <mxGeometry relative="1" as="geometry">
                        <mxPoint x="800" y="150" as="sourcePoint"/>
                        <mxPoint x="960" y="150" as="targetPoint"/>
                    </mxGeometry>
                </mxCell>
                <mxCell id="63" value="" style="endArrow=none;html=1;rounded=0;exitX=0.5;exitY=1;exitDx=0;exitDy=0;entryX=0.5;entryY=0;entryDx=0;entryDy=0;" edge="1" parent="1" source="60" target="58">
                    <mxGeometry relative="1" as="geometry">
                        <mxPoint x="765.4319484078201" y="105.58356900493328" as="sourcePoint"/>
                        <mxPoint x="812.5" y="170" as="targetPoint"/>
                    </mxGeometry>
                </mxCell>
                <mxCell id="64" value="" style="endArrow=none;html=1;rounded=0;exitX=0;exitY=1;exitDx=0;exitDy=0;entryX=0.75;entryY=0;entryDx=0;entryDy=0;" edge="1" parent="1" source="61" target="58">
                    <mxGeometry relative="1" as="geometry">
                        <mxPoint x="855" y="110" as="sourcePoint"/>
                        <mxPoint x="855" y="170" as="targetPoint"/>
                    </mxGeometry>
                </mxCell>
                <mxCell id="65" value="" style="endArrow=none;html=1;rounded=0;exitX=1;exitY=0;exitDx=0;exitDy=0;entryX=0;entryY=1;entryDx=0;entryDy=0;" edge="1" parent="1" source="53" target="58">
                    <mxGeometry relative="1" as="geometry">
                        <mxPoint x="760" y="210" as="sourcePoint"/>
                        <mxPoint x="920" y="210" as="targetPoint"/>
                    </mxGeometry>
                </mxCell>
                <mxCell id="66" value="BORROWED" style="whiteSpace=wrap;html=1;align=center;" vertex="1" parent="1">
                    <mxGeometry x="800" y="340" width="100" height="40" as="geometry"/>
                </mxCell>
                <mxCell id="67" value="" style="endArrow=none;html=1;rounded=0;exitX=1;exitY=1;exitDx=0;exitDy=0;entryX=0;entryY=0;entryDx=0;entryDy=0;" edge="1" parent="1" source="53" target="66">
                    <mxGeometry relative="1" as="geometry">
                        <mxPoint x="697.0710678118655" y="282.9289321881346" as="sourcePoint"/>
                        <mxPoint x="770" y="210" as="targetPoint"/>
                    </mxGeometry>
                </mxCell>
                <mxCell id="69" value="Borrowed_from" style="ellipse;whiteSpace=wrap;html=1;align=center;" vertex="1" parent="1">
                    <mxGeometry x="830" y="270" width="100" height="30" as="geometry"/>
                </mxCell>
                <mxCell id="70" value="Date_borrowed" style="ellipse;whiteSpace=wrap;html=1;align=center;" vertex="1" parent="1">
                    <mxGeometry x="780" y="425" width="100" height="35" as="geometry"/>
                </mxCell>
                <mxCell id="71" value="Date_returned" style="ellipse;whiteSpace=wrap;html=1;align=center;" vertex="1" parent="1">
                    <mxGeometry x="900" y="425" width="100" height="35" as="geometry"/>
                </mxCell>
                <mxCell id="72" value="" style="endArrow=none;html=1;rounded=0;exitX=0.5;exitY=1;exitDx=0;exitDy=0;entryX=0.5;entryY=0;entryDx=0;entryDy=0;" edge="1" parent="1" source="69" target="66">
                    <mxGeometry relative="1" as="geometry">
                        <mxPoint x="820" y="340" as="sourcePoint"/>
                        <mxPoint x="980" y="340" as="targetPoint"/>
                    </mxGeometry>
                </mxCell>
                <mxCell id="73" value="" style="endArrow=none;html=1;rounded=0;exitX=0.25;exitY=1;exitDx=0;exitDy=0;entryX=0.5;entryY=0;entryDx=0;entryDy=0;" edge="1" parent="1" source="66" target="70">
                    <mxGeometry relative="1" as="geometry">
                        <mxPoint x="890" y="310" as="sourcePoint"/>
                        <mxPoint x="860" y="350" as="targetPoint"/>
                    </mxGeometry>
                </mxCell>
                <mxCell id="74" value="" style="endArrow=none;html=1;rounded=0;exitX=1;exitY=1;exitDx=0;exitDy=0;entryX=0.5;entryY=0;entryDx=0;entryDy=0;" edge="1" parent="1" source="66" target="71">
                    <mxGeometry relative="1" as="geometry">
                        <mxPoint x="835" y="390" as="sourcePoint"/>
                        <mxPoint x="790" y="430" as="targetPoint"/>
                    </mxGeometry>
                </mxCell>
                <mxCell id="77" value="BORROWS" style="shape=rhombus;perimeter=rhombusPerimeter;whiteSpace=wrap;html=1;align=center;" vertex="1" parent="1">
                    <mxGeometry x="1040" y="315" width="90" height="90" as="geometry"/>
                </mxCell>
                <mxCell id="78" value="" style="shape=link;html=1;rounded=0;exitX=1;exitY=0.5;exitDx=0;exitDy=0;entryX=0;entryY=0.5;entryDx=0;entryDy=0;" edge="1" parent="1" source="66" target="77">
                    <mxGeometry relative="1" as="geometry">
                        <mxPoint x="1130" y="315" as="sourcePoint"/>
                        <mxPoint x="1290" y="315" as="targetPoint"/>
                    </mxGeometry>
                </mxCell>
                <mxCell id="79" value="N" style="resizable=0;html=1;align=right;verticalAlign=bottom;" connectable="0" vertex="1" parent="78">
                    <mxGeometry x="1" relative="1" as="geometry">
                        <mxPoint x="-60" as="offset"/>
                    </mxGeometry>
                </mxCell>
                <mxCell id="80" value="COLLECTIONS" style="whiteSpace=wrap;html=1;align=center;" vertex="1" parent="1">
                    <mxGeometry x="1280" y="340" width="100" height="40" as="geometry"/>
                </mxCell>
                <mxCell id="81" value="" style="endArrow=none;html=1;rounded=0;entryX=0;entryY=0.5;entryDx=0;entryDy=0;exitX=1;exitY=0.5;exitDx=0;exitDy=0;" edge="1" parent="1" source="77" target="80">
                    <mxGeometry relative="1" as="geometry">
                        <mxPoint x="1150" y="380" as="sourcePoint"/>
                        <mxPoint x="1240" y="359.67" as="targetPoint"/>
                    </mxGeometry>
                </mxCell>
                <mxCell id="82" value="1" style="resizable=0;html=1;align=right;verticalAlign=bottom;" connectable="0" vertex="1" parent="81">
                    <mxGeometry x="1" relative="1" as="geometry">
                        <mxPoint x="-60" as="offset"/>
                    </mxGeometry>
                </mxCell>
                <mxCell id="83" value="Name" style="ellipse;whiteSpace=wrap;html=1;align=center;fontStyle=4;" vertex="1" parent="1">
                    <mxGeometry x="1200" y="265" width="70" height="30" as="geometry"/>
                </mxCell>
                <mxCell id="84" value="Type" style="ellipse;whiteSpace=wrap;html=1;align=center;" vertex="1" parent="1">
                    <mxGeometry x="1295" y="260" width="70" height="30" as="geometry"/>
                </mxCell>
                <mxCell id="85" value="Description" style="ellipse;whiteSpace=wrap;html=1;align=center;" vertex="1" parent="1">
                    <mxGeometry x="1400" y="260" width="70" height="30" as="geometry"/>
                </mxCell>
                <mxCell id="86" value="Phone" style="ellipse;whiteSpace=wrap;html=1;align=center;" vertex="1" parent="1">
                    <mxGeometry x="1440" y="345" width="70" height="35" as="geometry"/>
                </mxCell>
                <mxCell id="87" value="Contact_person" style="ellipse;whiteSpace=wrap;html=1;align=center;" vertex="1" parent="1">
                    <mxGeometry x="1370" y="422.5" width="110" height="30" as="geometry"/>
                </mxCell>
                <mxCell id="88" value="Address" style="ellipse;whiteSpace=wrap;html=1;align=center;" vertex="1" parent="1">
                    <mxGeometry x="1230" y="422.5" width="70" height="30" as="geometry"/>
                </mxCell>
                <mxCell id="89" value="" style="endArrow=none;html=1;rounded=0;exitX=1;exitY=1;exitDx=0;exitDy=0;entryX=0.25;entryY=0;entryDx=0;entryDy=0;" edge="1" parent="1" source="83" target="80">
                    <mxGeometry relative="1" as="geometry">
                        <mxPoint x="1250" y="380" as="sourcePoint"/>
                        <mxPoint x="1410" y="380" as="targetPoint"/>
                    </mxGeometry>
                </mxCell>
                <mxCell id="90" value="" style="endArrow=none;html=1;rounded=0;exitX=0.5;exitY=1;exitDx=0;exitDy=0;entryX=0.5;entryY=0;entryDx=0;entryDy=0;" edge="1" parent="1" source="84" target="80">
                    <mxGeometry relative="1" as="geometry">
                        <mxPoint x="1279.7487373415292" y="295.6066017177983" as="sourcePoint"/>
                        <mxPoint x="1315" y="350" as="targetPoint"/>
                    </mxGeometry>
                </mxCell>
                <mxCell id="91" value="" style="endArrow=none;html=1;rounded=0;exitX=0;exitY=1;exitDx=0;exitDy=0;entryX=0.75;entryY=0;entryDx=0;entryDy=0;" edge="1" parent="1" source="85" target="80">
                    <mxGeometry relative="1" as="geometry">
                        <mxPoint x="1345" y="300" as="sourcePoint"/>
                        <mxPoint x="1340" y="350" as="targetPoint"/>
                    </mxGeometry>
                </mxCell>
                <mxCell id="92" value="" style="endArrow=none;html=1;rounded=0;exitX=0;exitY=0.5;exitDx=0;exitDy=0;entryX=1;entryY=0.5;entryDx=0;entryDy=0;" edge="1" parent="1" source="86" target="80">
                    <mxGeometry relative="1" as="geometry">
                        <mxPoint x="1420.2512626584708" y="295.6066017177984" as="sourcePoint"/>
                        <mxPoint x="1365" y="350" as="targetPoint"/>
                    </mxGeometry>
                </mxCell>
                <mxCell id="93" value="" style="endArrow=none;html=1;rounded=0;exitX=0;exitY=0;exitDx=0;exitDy=0;entryX=0.75;entryY=1;entryDx=0;entryDy=0;" edge="1" parent="1" source="87" target="80">
                    <mxGeometry relative="1" as="geometry">
                        <mxPoint x="1450" y="372.5" as="sourcePoint"/>
                        <mxPoint x="1390" y="370" as="targetPoint"/>
                    </mxGeometry>
                </mxCell>
                <mxCell id="94" value="" style="endArrow=none;html=1;rounded=0;exitX=0.25;exitY=1;exitDx=0;exitDy=0;entryX=0.5;entryY=0;entryDx=0;entryDy=0;" edge="1" parent="1" source="80" target="88">
                    <mxGeometry relative="1" as="geometry">
                        <mxPoint x="1396.10912703474" y="436.8933982822018" as="sourcePoint"/>
                        <mxPoint x="1365" y="390" as="targetPoint"/>
                    </mxGeometry>
                </mxCell>
                <mxCell id="95" value="d" style="ellipse;whiteSpace=wrap;html=1;align=center;" vertex="1" parent="1">
                    <mxGeometry x="870" y="630" width="20" height="20" as="geometry"/>
                </mxCell>
                <mxCell id="96" value="" style="shape=link;html=1;rounded=0;exitX=1;exitY=1;exitDx=0;exitDy=0;entryX=0;entryY=0;entryDx=0;entryDy=0;" edge="1" parent="1" source="2" target="95">
                    <mxGeometry relative="1" as="geometry">
                        <mxPoint x="520" y="290" as="sourcePoint"/>
                        <mxPoint x="680" y="290" as="targetPoint"/>
                    </mxGeometry>
                </mxCell>
                <mxCell id="97" value="OTHER" style="whiteSpace=wrap;html=1;align=center;" vertex="1" parent="1">
                    <mxGeometry x="970" y="570" width="100" height="40" as="geometry"/>
                </mxCell>
                <mxCell id="98" value="STATUE" style="whiteSpace=wrap;html=1;align=center;" vertex="1" parent="1">
                    <mxGeometry x="985" y="720" width="100" height="40" as="geometry"/>
                </mxCell>
                <mxCell id="99" value="SCULPTURE" style="whiteSpace=wrap;html=1;align=center;" vertex="1" parent="1">
                    <mxGeometry x="830" y="830" width="100" height="40" as="geometry"/>
                </mxCell>
                <mxCell id="100" value="PAINTING" style="whiteSpace=wrap;html=1;align=center;" vertex="1" parent="1">
                    <mxGeometry x="690" y="720" width="100" height="40" as="geometry"/>
                </mxCell>
                <mxCell id="101" value="" style="endArrow=none;html=1;rounded=0;entryX=0;entryY=0.5;entryDx=0;entryDy=0;exitX=1;exitY=0;exitDx=0;exitDy=0;" edge="1" parent="1" source="95" target="97">
                    <mxGeometry relative="1" as="geometry">
                        <mxPoint x="860" y="670" as="sourcePoint"/>
                        <mxPoint x="1020" y="670" as="targetPoint"/>
                    </mxGeometry>
                </mxCell>
                <mxCell id="102" value="" style="endArrow=none;html=1;rounded=0;entryX=0;entryY=0;entryDx=0;entryDy=0;exitX=1;exitY=1;exitDx=0;exitDy=0;" edge="1" parent="1" source="95" target="98">
                    <mxGeometry relative="1" as="geometry">
                        <mxPoint x="897.0710678118655" y="642.9289321881346" as="sourcePoint"/>
                        <mxPoint x="980" y="600" as="targetPoint"/>
                    </mxGeometry>
                </mxCell>
                <mxCell id="103" value="" style="endArrow=none;html=1;rounded=0;entryX=0.5;entryY=0;entryDx=0;entryDy=0;exitX=0.5;exitY=1;exitDx=0;exitDy=0;" edge="1" parent="1" source="95" target="99">
                    <mxGeometry relative="1" as="geometry">
                        <mxPoint x="897.0710678118655" y="657.0710678118656" as="sourcePoint"/>
                        <mxPoint x="970" y="730" as="targetPoint"/>
                    </mxGeometry>
                </mxCell>
                <mxCell id="104" value="" style="endArrow=none;html=1;rounded=0;entryX=1;entryY=0;entryDx=0;entryDy=0;exitX=0;exitY=1;exitDx=0;exitDy=0;" edge="1" parent="1" source="95" target="100">
                    <mxGeometry relative="1" as="geometry">
                        <mxPoint x="890" y="660" as="sourcePoint"/>
                        <mxPoint x="890" y="810" as="targetPoint"/>
                    </mxGeometry>
                </mxCell>
                <mxCell id="105" value="Type" style="ellipse;whiteSpace=wrap;html=1;align=center;" vertex="1" parent="1">
                    <mxGeometry x="985" y="490" width="70" height="30" as="geometry"/>
                </mxCell>
                <mxCell id="106" value="Style" style="ellipse;whiteSpace=wrap;html=1;align=center;" vertex="1" parent="1">
                    <mxGeometry x="1090" y="520" width="70" height="30" as="geometry"/>
                </mxCell>
                <mxCell id="107" value="" style="endArrow=none;html=1;rounded=0;exitX=0.5;exitY=0;exitDx=0;exitDy=0;entryX=0.5;entryY=1;entryDx=0;entryDy=0;" edge="1" parent="1" source="97" target="105">
                    <mxGeometry relative="1" as="geometry">
                        <mxPoint x="1070" y="570" as="sourcePoint"/>
                        <mxPoint x="1230" y="570" as="targetPoint"/>
                    </mxGeometry>
                </mxCell>
                <mxCell id="108" value="" style="endArrow=none;html=1;rounded=0;exitX=1;exitY=0;exitDx=0;exitDy=0;entryX=0;entryY=1;entryDx=0;entryDy=0;" edge="1" parent="1" source="97" target="106">
                    <mxGeometry relative="1" as="geometry">
                        <mxPoint x="1030" y="580" as="sourcePoint"/>
                        <mxPoint x="1045" y="520" as="targetPoint"/>
                    </mxGeometry>
                </mxCell>
                <mxCell id="109" value="Style" style="ellipse;whiteSpace=wrap;html=1;align=center;" vertex="1" parent="1">
                    <mxGeometry x="1070" y="638" width="70" height="30" as="geometry"/>
                </mxCell>
                <mxCell id="110" value="Weight" style="ellipse;whiteSpace=wrap;html=1;align=center;" vertex="1" parent="1">
                    <mxGeometry x="1140" y="700" width="70" height="30" as="geometry"/>
                </mxCell>
                <mxCell id="111" value="Height" style="ellipse;whiteSpace=wrap;html=1;align=center;" vertex="1" parent="1">
                    <mxGeometry x="1140" y="750" width="70" height="30" as="geometry"/>
                </mxCell>
                <mxCell id="112" value="Material" style="ellipse;whiteSpace=wrap;html=1;align=center;" vertex="1" parent="1">
                    <mxGeometry x="1030" y="810" width="70" height="30" as="geometry"/>
                </mxCell>
                <mxCell id="113" value="" style="endArrow=none;html=1;rounded=0;exitX=0.5;exitY=0;exitDx=0;exitDy=0;entryX=0.75;entryY=1;entryDx=0;entryDy=0;" edge="1" parent="1" source="112" target="98">
                    <mxGeometry relative="1" as="geometry">
                        <mxPoint x="1050" y="770" as="sourcePoint"/>
                        <mxPoint x="1210" y="770" as="targetPoint"/>
                    </mxGeometry>
                </mxCell>
                <mxCell id="114" value="" style="endArrow=none;html=1;rounded=0;exitX=0;exitY=0.5;exitDx=0;exitDy=0;entryX=1;entryY=0.75;entryDx=0;entryDy=0;" edge="1" parent="1" source="111" target="98">
                    <mxGeometry relative="1" as="geometry">
                        <mxPoint x="1075" y="820" as="sourcePoint"/>
                        <mxPoint x="1070" y="770" as="targetPoint"/>
                    </mxGeometry>
                </mxCell>
                <mxCell id="115" value="" style="endArrow=none;html=1;rounded=0;exitX=0;exitY=0.5;exitDx=0;exitDy=0;entryX=1;entryY=0.25;entryDx=0;entryDy=0;" edge="1" parent="1" source="110" target="98">
                    <mxGeometry relative="1" as="geometry">
                        <mxPoint x="1140.0000000000036" y="795" as="sourcePoint"/>
                        <mxPoint x="1095" y="770" as="targetPoint"/>
                    </mxGeometry>
                </mxCell>
                <mxCell id="116" value="" style="endArrow=none;html=1;rounded=0;exitX=0;exitY=1;exitDx=0;exitDy=0;entryX=0.75;entryY=0;entryDx=0;entryDy=0;" edge="1" parent="1" source="109" target="98">
                    <mxGeometry relative="1" as="geometry">
                        <mxPoint x="1150.0000000000036" y="725" as="sourcePoint"/>
                        <mxPoint x="1095" y="740" as="targetPoint"/>
                    </mxGeometry>
                </mxCell>
                <mxCell id="117" value="Style" style="ellipse;whiteSpace=wrap;html=1;align=center;" vertex="1" parent="1">
                    <mxGeometry x="950" y="880" width="70" height="30" as="geometry"/>
                </mxCell>
                <mxCell id="118" value="Weight" style="ellipse;whiteSpace=wrap;html=1;align=center;" vertex="1" parent="1">
                    <mxGeometry x="900" y="930" width="70" height="30" as="geometry"/>
                </mxCell>
                <mxCell id="119" value="Height" style="ellipse;whiteSpace=wrap;html=1;align=center;" vertex="1" parent="1">
                    <mxGeometry x="795" y="930" width="70" height="30" as="geometry"/>
                </mxCell>
                <mxCell id="120" value="Material" style="ellipse;whiteSpace=wrap;html=1;align=center;" vertex="1" parent="1">
                    <mxGeometry x="725" y="880" width="70" height="30" as="geometry"/>
                </mxCell>
                <mxCell id="121" value="" style="endArrow=none;html=1;rounded=0;exitX=1;exitY=0;exitDx=0;exitDy=0;entryX=0;entryY=0.75;entryDx=0;entryDy=0;" edge="1" parent="1" source="120" target="99">
                    <mxGeometry relative="1" as="geometry">
                        <mxPoint x="800" y="840" as="sourcePoint"/>
                        <mxPoint x="960" y="840" as="targetPoint"/>
                    </mxGeometry>
                </mxCell>
                <mxCell id="122" value="" style="endArrow=none;html=1;rounded=0;exitX=0.5;exitY=0;exitDx=0;exitDy=0;entryX=0.25;entryY=1;entryDx=0;entryDy=0;" edge="1" parent="1" source="119" target="99">
                    <mxGeometry relative="1" as="geometry">
                        <mxPoint x="794.9667751030124" y="894.4876736408371" as="sourcePoint"/>
                        <mxPoint x="840" y="870" as="targetPoint"/>
                    </mxGeometry>
                </mxCell>
                <mxCell id="123" value="" style="endArrow=none;html=1;rounded=0;exitX=0.5;exitY=0;exitDx=0;exitDy=0;entryX=0.75;entryY=1;entryDx=0;entryDy=0;" edge="1" parent="1" source="118" target="99">
                    <mxGeometry relative="1" as="geometry">
                        <mxPoint x="840" y="940.0000000000002" as="sourcePoint"/>
                        <mxPoint x="865" y="880" as="targetPoint"/>
                    </mxGeometry>
                </mxCell>
                <mxCell id="124" value="" style="endArrow=none;html=1;rounded=0;exitX=0;exitY=0;exitDx=0;exitDy=0;entryX=1;entryY=0.75;entryDx=0;entryDy=0;" edge="1" parent="1" source="117" target="99">
                    <mxGeometry relative="1" as="geometry">
                        <mxPoint x="945" y="940.0000000000002" as="sourcePoint"/>
                        <mxPoint x="915" y="880" as="targetPoint"/>
                    </mxGeometry>
                </mxCell>
                <mxCell id="125" value="Style" style="ellipse;whiteSpace=wrap;html=1;align=center;" vertex="1" parent="1">
                    <mxGeometry x="750" y="800" width="70" height="30" as="geometry"/>
                </mxCell>
                <mxCell id="126" value="Drawn_on" style="ellipse;whiteSpace=wrap;html=1;align=center;" vertex="1" parent="1">
                    <mxGeometry x="655" y="820" width="70" height="30" as="geometry"/>
                </mxCell>
                <mxCell id="127" value="Paint_type" style="ellipse;whiteSpace=wrap;html=1;align=center;" vertex="1" parent="1">
                    <mxGeometry x="570" y="770" width="70" height="30" as="geometry"/>
                </mxCell>
                <mxCell id="128" value="" style="endArrow=none;html=1;rounded=0;exitX=1;exitY=0;exitDx=0;exitDy=0;entryX=0;entryY=0.75;entryDx=0;entryDy=0;" edge="1" parent="1" source="127" target="100">
                    <mxGeometry relative="1" as="geometry">
                        <mxPoint x="740" y="800" as="sourcePoint"/>
                        <mxPoint x="900" y="800" as="targetPoint"/>
                    </mxGeometry>
                </mxCell>
                <mxCell id="129" value="" style="endArrow=none;html=1;rounded=0;exitX=0.5;exitY=0;exitDx=0;exitDy=0;entryX=0.162;entryY=1.003;entryDx=0;entryDy=0;entryPerimeter=0;" edge="1" parent="1" source="126" target="100">
                    <mxGeometry relative="1" as="geometry">
                        <mxPoint x="639.9667751030172" y="784.487673640835" as="sourcePoint"/>
                        <mxPoint x="700" y="760" as="targetPoint"/>
                    </mxGeometry>
                </mxCell>
                <mxCell id="130" value="" style="endArrow=none;html=1;rounded=0;exitX=0.439;exitY=0.004;exitDx=0;exitDy=0;entryX=0.75;entryY=1;entryDx=0;entryDy=0;exitPerimeter=0;" edge="1" parent="1" source="125" target="100">
                    <mxGeometry relative="1" as="geometry">
                        <mxPoint x="700" y="830" as="sourcePoint"/>
                        <mxPoint x="716.2" y="770.1200000000001" as="targetPoint"/>
                    </mxGeometry>
                </mxCell>
            </root>
        </mxGraphModel>
    </diagram>
</mxfile>